<svg xmlns="http://www.w3.org/2000/svg" aria-hidden="true" focusable="false" role="img" viewBox="0 0 512 512">
	<path fill="currentColor" d="M254.9,167.5c-67.7,0-126,64.2-143.3,85.2c17.3,21,75.8,85.2,143.3,85.2c67.7,0,126-64.2,143.3-85.2
		C380.9,231.7,322.4,167.5,254.9,167.5z M254.9,319.4c-36.8,0-66.7-29.9-66.7-66.7c0-36.8,29.9-66.7,66.7-66.7
		c36.8,0,66.7,29.9,66.7,66.7C321.6,289.4,291.7,319.4,254.9,319.4z"/>
	<path fill="currentColor" d="M254.9,4.3C117.7,4.3,6.5,115.5,6.5,252.7s111.2,248.4,248.4,248.4s248.4-111.2,248.4-248.4S392.1,4.3,254.9,4.3z
		 M421.3,259.2c-3,4.1-74.8,100.9-166.4,100.9c-91.7,0-163.4-96.8-166.4-100.9c-2.9-3.9-2.9-9.2,0-13.1
		c3-4.1,74.8-100.9,166.4-100.9c91.7,0,163.4,96.8,166.4,100.9C424.2,250,424.2,255.3,421.3,259.2z"/>
	<path fill="currentColor" d="M254.9,208.2c-24.5,0-44.5,19.9-44.5,44.5c0,24.5,19.9,44.5,44.5,44.5c24.5,0,44.5-19.9,44.5-44.5
		C299.4,228.2,279.4,208.2,254.9,208.2z"/>
</svg>
