<svg width="576" height="512" viewBox="0 0 576 512" fill="none" xmlns="http://www.w3.org/2000/svg">
<path fill-rule="evenodd" clip-rule="evenodd" d="M507.028 72.0284L472 37L68.8532 440.147L103.882 475.175L507.028 72.0284ZM287.999 64C327.942 64 366.241 71.5581 401.608 85.3923L363.867 123.133C339.563 115.84 314.069 112 287.999 112C189.339 112 98.9095 167 50.0695 256C71.462 294.983 100.836 327.443 135.385 351.615L101.032 385.968C60.5547 355.993 27.014 316.519 3.47945 270.6C1.19187 266.075 0 261.075 0 256.005C0 250.935 1.19187 245.935 3.47945 241.41C57.6795 135.64 165.069 64 287.999 64ZM287.999 144C303.743 143.952 319.228 147.232 333.475 153.525L186.152 300.848C185.069 298.396 184.072 295.899 183.163 293.362C175.261 271.289 174.504 247.288 180.999 224.76C189.233 229.442 198.529 231.934 207.999 232C215.353 232 222.635 230.552 229.43 227.737C236.224 224.923 242.397 220.798 247.597 215.598C252.798 210.398 256.922 204.225 259.737 197.43C262.551 190.636 263.999 183.354 263.999 176C263.934 166.529 261.441 157.233 256.759 149C266.88 145.849 277.401 144.166 287.999 144ZM390.024 209.462L242.09 357.397C257.293 364.311 273.933 367.764 290.797 367.392C314.237 366.876 336.921 358.998 355.634 344.873C374.348 330.749 388.143 311.094 395.066 288.694C401.989 266.293 401.688 242.283 394.206 220.063C392.989 216.448 391.592 212.911 390.024 209.462ZM287.999 400C261.516 400 235.625 396.036 210.971 388.515L173.306 426.181C208.974 440.286 247.648 448 287.999 448C410.929 448 518.319 376.36 572.519 270.59C574.807 266.065 575.999 261.065 575.999 255.995C575.999 250.925 574.807 245.925 572.519 241.4C548.817 195.152 514.964 155.442 474.097 125.39L439.724 159.762C474.659 183.999 504.353 216.681 525.929 256C477.099 345 386.659 400 287.999 400Z" fill="#f81d59"/>
</svg>
