<svg xmlns="http://www.w3.org/2000/svg" xmlns:xlink="http://www.w3.org/1999/xlink" width="85px" height="27px" viewBox="0 0 85 27" version="1.1">
   <path fill="#F81D59" d="M6.14457831,6.14722074 L6.14457831,23.5568593 C6.14457831,25.2536377 4.76906761,26.6291484 3.07228916,26.6291484 C1.37551071,26.6291484 0,25.2536377 0,23.5568593 L0,5.63517255 C0,2.52441206 2.52176963,0.00264242451 5.63253012,0.00264242451 L13.313253,0.00264242451 C20.6659596,0.00264242451 26.626506,5.96318883 26.626506,13.3158954 L26.626506,23.5568593 C26.626506,25.2536377 25.2509953,26.6291484 23.5542169,26.6291484 C21.8574384,26.6291484 20.4819277,25.2536377 20.4819277,23.5568593 L20.4819277,13.3158954 C20.4819277,9.35674572 17.2724027,6.14722074 13.313253,6.14722074 L6.14457831,6.14722074 Z M54.008683,11.2207244 L39.2459983,19.0701838 C41.3988898,20.6684807 44.3646355,20.9879991 46.8895854,19.6454595 C48.3877518,18.8488703 50.2480188,19.417611 51.0446081,20.9157774 C51.8411971,22.4139439 51.2724565,24.2742109 49.77429,25.0708001 C43.2822355,28.5226868 35.2210783,26.0581438 31.7691916,19.5660891 C28.317305,13.0740345 30.781848,5.01287741 37.2739028,1.56099074 C43.7659572,-1.89089593 51.8271145,0.573647137 55.2790011,7.06570173 C56.0755904,8.56386818 55.5068495,10.4241352 54.008683,11.2207244 Z M40.1586074,6.98633137 C37.6336578,8.32887096 36.2401264,10.9662581 36.3612913,13.6448437 L47.8021948,7.56160748 C45.649303,5.96331016 42.6835572,5.64379178 40.1586074,6.98633137 Z M85,13.3158954 C85,20.668602 79.0394536,26.6291484 71.686747,26.6291484 C64.3340404,26.6291484 58.373494,20.668602 58.373494,13.3158954 C58.373494,5.96318883 64.3340404,0.00264242451 71.686747,0.00264242451 C79.0394536,0.00264242451 85,5.96318883 85,13.3158954 Z M78.8554217,13.3158954 C78.8554217,9.35674572 75.6458967,6.14722074 71.686747,6.14722074 C67.7275973,6.14722074 64.5180723,9.35674572 64.5180723,13.3158954 C64.5180723,17.2750452 67.7275973,20.4845701 71.686747,20.4845701 C75.6458967,20.4845701 78.8554217,17.2750452 78.8554217,13.3158954 Z"/>
</svg>
